<?xml version="1.0" encoding="utf-8"?>
<!-- Generator: Adobe Illustrator 24.0.0, SVG Export Plug-In . SVG Version: 6.00 Build 0)  -->
<svg version="1.1" id="Layer_1" xmlns="http://www.w3.org/2000/svg" xmlns:xlink="http://www.w3.org/1999/xlink" x="0px" y="0px"
	 viewBox="0 0 256 256" style="enable-background:new 0 0 256 256;" xml:space="preserve">
<style type="text/css">
	.st0{clip-path:url(#SVGID_2_);fill:#EFF9F5;}
	.st1{clip-path:url(#SVGID_4_);fill:#ECF8F3;}
	.st2{clip-path:url(#SVGID_6_);fill:#124734;}
	.st3{clip-path:url(#SVGID_6_);fill:#231F20;}
	.st4{fill:#124734;}
	.st5{clip-path:url(#SVGID_8_);fill:#231F20;}
	.st6{clip-path:url(#SVGID_10_);fill:#009877;}
	.st7{clip-path:url(#SVGID_10_);fill:#00586F;}
	.st8{clip-path:url(#SVGID_12_);}
	.st9{clip-path:url(#SVGID_14_);}
	.st10{clip-path:url(#SVGID_16_);}
	.st11{clip-path:url(#SVGID_18_);}
	.st12{clip-path:url(#SVGID_20_);}
	.st13{clip-path:url(#SVGID_22_);}
	.st14{fill:#FFFFFF;}
	.st15{fill:#B3B3B3;}
	.st16{fill:#678849;}
	.st17{fill:#B34A64;}
	.st18{fill:#484D79;}
	.st19{fill:#E6E6E6;}
	.st20{clip-path:url(#SVGID_26_);fill:none;stroke:#E3F4EF;stroke-width:1.064;stroke-miterlimit:10;}
	.st21{clip-path:url(#SVGID_26_);fill:#484D79;}
	.st22{clip-path:url(#SVGID_26_);fill:#7FD2B9;}
	.st23{clip-path:url(#SVGID_26_);fill:#9ADBC7;}
	.st24{clip-path:url(#SVGID_26_);fill:#00828D;}
	.st25{clip-path:url(#SVGID_28_);fill:#ECF8F3;}
	.st26{opacity:0.3;clip-path:url(#SVGID_30_);}
	.st27{fill:#7FD2B9;}
	.st28{clip-path:url(#SVGID_32_);fill:#E1E1E9;}
	.st29{opacity:0.2;clip-path:url(#SVGID_34_);}
	.st30{fill:#E7ECE1;}
	.st31{opacity:0.2;clip-path:url(#SVGID_36_);}
	.st32{opacity:0.2;clip-path:url(#SVGID_38_);}
	.st33{fill:#00586F;}
	.st34{fill:#F2F2F2;}
	.st35{fill:#009877;}
	.st36{fill:none;stroke:#E6E6E6;stroke-miterlimit:10;}
	.st37{fill:none;stroke:#CCCCCC;stroke-miterlimit:10;}
	.st38{clip-path:url(#SVGID_40_);fill:#ECF8F3;}
	.st39{opacity:0.3;clip-path:url(#SVGID_42_);}
	.st40{clip-path:url(#SVGID_44_);fill:#E1E1E9;}
	.st41{opacity:0.2;clip-path:url(#SVGID_46_);}
	.st42{opacity:0.2;clip-path:url(#SVGID_48_);}
	.st43{opacity:0.2;clip-path:url(#SVGID_50_);}
	.st44{opacity:0.3;clip-path:url(#SVGID_52_);}
	.st45{fill:#007D6C;}
	.st46{clip-path:url(#SVGID_54_);fill:#EFF9F5;}
	.st47{fill:none;stroke:#FFFFFF;stroke-miterlimit:10;}
	.st48{fill:#EFF9F5;}
</style>
<g>
	<g>
		<defs>
			<rect id="SVGID_37_" x="932.9" y="-424.5" width="178" height="584"/>
		</defs>
		<clipPath id="SVGID_2_">
			<use xlink:href="#SVGID_37_"  style="overflow:visible;"/>
		</clipPath>
		<g style="opacity:0.2;clip-path:url(#SVGID_2_);">
			<path class="st33" d="M8.2,395.7c40.9,28.2,98.6,50.6,157.2,50.6c37.6,0,75.6-9.2,109.7-32.1c16-10.7,26.1-25.4,34-41.6
				c11.8-24.3,18.4-51.9,31.5-74.8c6.6-11.5,14.8-21.7,26.1-29.9c11.3-8.1,25.7-14.2,44.8-17.1c42.5-6.5,78.7-16.4,108.2-38.6
				c29.5-22.2,52.1-56.8,67.7-112.2c7.5-26.8,20-46.5,39-59.5c19-13,44.5-19.4,78.3-19.4c1.3,0,2.5,0,3.8,0
				c17.6,0.2,36.9,4.9,57.4,11.8c30.6,10.3,63.5,25.7,96,38.6c32.5,13,64.7,23.5,93.9,24.2c1.6,0,3.1,0.1,4.7,0.1
				c68.4,0,125.3-36.6,162.1-86.1l-1.2-0.9c-36.6,49.2-93,85.5-160.8,85.5c-1.5,0-3.1,0-4.6-0.1c-38.5-0.9-82.6-19.3-125.9-37.6
				c-21.6-9.2-43.1-18.3-63.6-25.2c-20.5-6.9-40-11.6-57.8-11.8c-1.3,0-2.6,0-3.8,0c-33.9,0-59.8,6.4-79.1,19.6s-32,33.3-39.6,60.3
				c-15.5,55.3-38,89.4-67.1,111.4c-29.2,22-65.1,31.9-107.5,38.3c-25.7,3.9-43.2,13.5-56,26.3c-19.2,19.3-27.6,45.8-37.2,71.3
				c-4.8,12.8-9.9,25.3-16.7,36.6c-6.8,11.3-15.4,21.4-27.1,29.3c-33.8,22.7-71.5,31.9-108.9,31.9c-58.2,0-115.6-22.3-156.3-50.3
				L8.2,395.7z"/>
			<path class="st33" d="M4.7,188.3c51.7,52,116.3,85.9,182,85.9c37,0,74.4-10.8,109.9-35.2c35.5-24.4,69.1-62.4,98.7-116.7
				c24.9-45.6,56-95.3,96.6-133.6c40.6-38.3,90.7-65.4,153.5-65.9c0.8,0,1.5,0,2.3,0c51.8,0,108.7,13.8,160.8,29.2
				c52.1,15.4,99.3,32.5,131.7,38.9c12.9,2.6,25.6,3.8,38,3.8c56.9,0,108.3-25.7,144.2-68.5l-1.2-1h0c-35.7,42.5-86.7,68-143.1,68
				c-12.3,0-24.9-1.2-37.7-3.8C908.3-17,861.1-34,808.9-49.5c-52.1-15.4-109.2-29.3-161.2-29.3c-0.8,0-1.6,0-2.3,0
				C582.1-78.2,531.7-51,490.9-12.4c-40.8,38.5-72,88.3-96.9,134c-29.5,54.2-63,92-98.2,116.2c-35.3,24.2-72.3,34.9-109,34.9
				c-65.2,0-129.5-33.7-181-85.5L4.7,188.3z"/>
			<path class="st33" d="M10.9-61.5c0,0,17.2,20.9,47.3,41.7c30.1,20.8,73.1,41.7,124.7,41.7c5.5,0,11.1-0.2,16.8-0.7
				c29.3-2.6,54-19.5,74.9-45.4C306-63,329-122.2,347-184.6c18-62.4,30.9-128,42-179.5c18.5-86.3,80.6-134,135.6-134
				c7.6,0,15,0.9,22.2,2.7c16.3,4.1,28.8,11.4,39.1,21c15.4,14.3,25.7,33.8,35.4,55.3c9.7,21.5,18.9,44.9,32.3,67.2
				c12.4,20.7,33.6,37.7,58.6,49.6c25.1,11.9,54,18.6,82.2,18.6c22.5,0,44.4-4.3,63.4-13.7c19-9.4,35-23.9,45.5-44.3
				c8.7-16.9,12.2-33.3,12.2-49.1v0c0-28.2-11-54.6-22.6-79.8c-11.6-25.1-23.9-49-26.8-71.8c-0.5-4.2-0.8-8.4-0.8-12.4
				c0-26,10.5-48.2,26.4-65.2c15.9-17,37.2-28.8,58.7-34.1c13.6-3.3,27-4.8,40-4.8c29.2,0,56.3,7.4,78.9,17.4
				c22.6,10,40.8,22.7,52,33.2l1-1.1c-11.4-10.6-29.7-23.4-52.5-33.5c-22.8-10.1-50.1-17.5-79.5-17.5c-13.1,0-26.6,1.5-40.3,4.8
				c-21.8,5.4-43.3,17.3-59.4,34.6c-16.1,17.2-26.8,39.8-26.8,66.2v0c0,4.1,0.3,8.3,0.8,12.6c2.9,23.3,15.3,47.2,26.9,72.3
				c11.6,25.1,22.4,51.4,22.4,79.1c0,15.6-3.4,31.7-12,48.4c-10.4,20.1-26.1,34.4-44.8,43.6c-18.7,9.3-40.4,13.5-62.7,13.5
				c-27.9,0-56.7-6.7-81.5-18.4c-24.8-11.8-45.7-28.7-58-49c-17.7-29.4-28.1-61.2-42.3-87.8c-7.1-13.3-15.2-25.3-25.6-35
				c-10.4-9.7-23.2-17.2-39.7-21.4c-7.3-1.9-14.9-2.8-22.5-2.8c-56,0-118.5,48.3-137.1,135.2c-14.8,68.8-32.8,162.4-61.7,240
				c-14.4,38.8-31.6,73.6-52.3,99.3c-20.8,25.7-45,42.3-73.8,44.8c-5.6,0.5-11.2,0.7-16.7,0.7C131.7,20.4,89-0.3,59.1-21
				c-15-10.4-26.7-20.7-34.7-28.5c-4-3.9-7.1-7.1-9.1-9.4c-1-1.1-1.8-2-2.3-2.6c-0.3-0.3-0.5-0.5-0.6-0.7c-0.1-0.2-0.2-0.2-0.2-0.2
				L10.9-61.5z M1122.4-609.5L1122.4-609.5"/>
			<path class="st33" d="M4.7,61.6c0.1,0.1,74,68.5,194.3,75.9c3,0.2,5.9,0.3,8.8,0.3c28.5,0,52.9-8.8,73.7-23.6
				C312.8,92,336,56.3,353.9,16.5c17.8-39.9,30.3-84,39.7-123.2c12.9-53.5,31.3-100,55.2-133.1c12-16.5,25.3-29.7,39.9-38.8
				c14.7-9,30.7-14,48-14h0h0c51.4,0,108.3,29.9,169.1,64.9c60.8,35.1,125.4,75.2,192.5,95.6c27.9,8.5,53.2,12.1,75.7,12.1
				c30.7,0,56.1-6.7,75.6-16.9c19.5-10.2,33-23.9,39.8-38c7.6-15.7,10.9-30.8,10.9-45.3v0c0-22.2-7.7-43-19.2-63.2
				c-17.2-30.3-43-59.2-64.4-89.1c-10.7-14.9-20.3-30.1-27.3-45.8c-6.9-15.7-11.2-31.8-11.2-48.8c0-9.9,1.4-20,4.6-30.5
				c2.1-6.9,8.5-14.5,18.7-20.3c10.3-5.8,24.4-9.9,41.8-9.9c21.3,0,47.6,6,78,22.3l0.7-1.4c-30.6-16.3-57.1-22.4-78.7-22.4
				c-17.7,0-32.1,4.1-42.6,10.1c-10.5,6-17.2,13.7-19.4,21.2c-3.2,10.6-4.7,20.9-4.7,31c0,23,7.7,44.5,19.2,65.1
				c17.2,30.9,43,60,64.4,89.6c10.7,14.8,20.3,29.7,27.3,45c6.9,15.3,11.2,30.9,11.2,47.3c0,14.3-3.2,29.1-10.8,44.6
				c-6.6,13.7-19.9,27.2-39.1,37.3c-19.2,10.1-44.4,16.7-74.9,16.7c-22.3,0-47.5-3.6-75.2-12c-66.8-20.3-131.3-60.4-192.1-95.4
				c-60.8-35-117.8-65.1-169.8-65.2h-0.1c0,0,0,0,0,0h0c-17.7,0-34,5-48.9,14.2c-22.3,13.8-41.4,36.9-57.4,66.6
				c-16,29.7-28.8,66-38.5,106.2C379.5-54.9,361.6,6,332.8,53.8c-14.4,23.9-31.6,44.5-52.2,59.1c-20.6,14.6-44.6,23.3-72.8,23.3
				c-2.9,0-5.8-0.1-8.7-0.3c-59.9-3.7-108.2-22.6-141.6-40.5c-16.7-9-29.6-17.7-38.4-24.2c-4.4-3.2-7.7-5.9-10-7.8
				c-1.1-0.9-2-1.7-2.5-2.2C6.3,61,6.1,60.8,6,60.7c-0.1-0.1-0.2-0.2-0.2-0.2L4.7,61.6z"/>
			<path class="st33" d="M4.8,35.8c26.7,19,58.6,38.4,91.7,53.1c33.2,14.7,67.6,24.7,99.5,24.7c20.1,0,39.1-3.9,56.2-13.1
				c22.9-12.3,42-32.4,58.1-56.2c24.1-35.7,41.3-79.9,54.1-119.3c6.4-19.7,11.7-38.2,16.1-53.9c4.5-15.7,8.1-28.5,11.2-36.7
				c4.1-10.9,9.1-27.3,15.6-45.9c9.8-27.8,23-60.4,41.2-85.9c9.1-12.8,19.6-23.8,31.5-31.6c11.9-7.8,25.3-12.4,40.4-12.4
				c1.7,0,3.4,0.1,5.1,0.2c23.7,1.6,45.6,10.8,68.7,24.3c69.2,40.6,148.1,119.9,312.2,145.2c10.3,1.6,20.5,2.4,30.4,2.4
				c29.6,0,56.6-7.1,76.1-20.7c9.8-6.8,17.7-15.3,23.2-25.3c5.5-10,8.5-21.7,8.5-34.8v0c0-21.2-7.9-46.3-26.2-74.9
				c-14.4-22.6-30.2-49.7-42.4-77.6c-12.2-27.9-20.7-56.7-20.7-82.7c0-14.9,2.8-28.9,9.3-41.2c5.2-9.8,13.1-16.8,23.1-21.4
				c10-4.6,22.1-6.7,35.5-6.7c29.2,0,64.5,10.1,98.1,26.8l0.7-1.4c-33.7-16.8-69.2-26.9-98.7-26.9c-13.6,0-25.9,2.2-36.2,6.8
				c-10.3,4.7-18.5,11.9-23.8,22c-6.7,12.6-9.5,26.9-9.5,41.9v0c0,26.3,8.6,55.2,20.8,83.3c12.2,28,28,55.2,42.5,77.8
				c18.2,28.4,26,53.2,26,74c0,12.9-3,24.2-8.3,34c-8,14.7-21.5,26-38.5,33.7c-17,7.6-37.5,11.6-59.5,11.6c-9.8,0-19.9-0.8-30.2-2.4
				c-109.1-16.8-180.4-57.5-236.4-94.9c-28-18.7-52.1-36.5-75.3-50.1c-23.2-13.6-45.3-22.9-69.3-24.6c-1.7-0.1-3.5-0.2-5.2-0.2
				c-20.6,0-38,8.4-52.8,21.6c-22.2,19.9-38.4,50.5-50.7,80.3c-12.3,29.8-20.6,58.7-26.6,74.9c-4.2,11.1-9.3,30.2-16,53.4
				c-10.1,34.7-23.8,78.6-43.5,118.4c-19.7,39.8-45.4,75.4-79.4,93.6c-16.8,9.1-35.6,13-55.5,13c-31.6,0-65.9-9.9-98.9-24.5
				c-33-14.6-64.8-34-91.5-53L4.8,35.8z"/>
			<path class="st33" d="M11.9-23.3C57.1,22,117.2,51.5,172.6,51.6c21.1,0,41.5-4.3,60.1-13.7c18.6-9.4,35.4-23.8,49.2-44
				c38.5-56.3,62.4-125.5,84.2-196.1c21.7-70.7,41.3-142.8,71.1-205.1c8.9-18.7,20.9-33.3,34.4-43.2c13.5-9.9,28.6-15.1,43.9-15.1
				c15,0,30.2,5.1,44.3,15.8c14.1,10.7,27.1,27.2,37.6,49.9c26.8,58,64.5,95.9,104.4,120c39.8,24.1,81.8,34.4,117.1,37.3
				c3.9,0.3,7.7,0.5,11.4,0.5c36.7,0,64.3-15.2,82.6-37.4c18.3-22.2,27.4-51.2,27.4-78.9c0-12.2-1.8-24.2-5.3-35.1
				c-7-21.5-15.9-48.1-23.2-75.3c-7.2-27.2-12.7-54.9-12.7-78.6v0c0-10.9,1.2-20.9,3.8-29.6c2.7-8.7,6.8-16.2,12.8-21.9
				c15.8-15.2,37.8-22.8,64.8-22.8c38.3,0,86.6,15.4,141,46.3l0.8-1.3c-54.6-31-103.1-46.5-141.8-46.5c-27.2,0-49.7,7.7-65.8,23.2
				c-6.2,6-10.5,13.6-13.2,22.6c-2.7,8.9-3.9,19.1-3.9,30.1c0,23.9,5.5,51.8,12.8,79c7.3,27.2,16.2,53.9,23.2,75.4
				c3.5,10.8,5.3,22.6,5.3,34.7v0c0,27.3-9,56-27.1,77.9c-18.1,21.8-45.1,36.8-81.4,36.8c-3.7,0-7.4-0.2-11.3-0.5
				c-35.1-2.9-76.8-13.1-116.4-37.1c-39.6-24-77.1-61.6-103.8-119.3c-10.6-22.9-23.7-39.5-38-50.4c-14.3-10.9-29.9-16.1-45.3-16.1
				c-15.6,0-31,5.4-44.8,15.4c-13.8,10.1-25.9,24.9-34.9,43.7c-29.9,62.4-49.5,134.7-71.2,205.3C342.9-132.1,319.1-63,280.7-7
				c-13.7,20-30.3,34.3-48.6,43.5C213.7,45.8,193.5,50,172.6,50C117.8,50,57.9,20.7,13-24.4L11.9-23.3z"/>
			<path class="st33" d="M11,14c17.6,13.9,42.9,31.4,72,45.3c29.1,14,62.1,24.5,95.2,24.5c29.3,0,58.8-8.3,85.6-29.7
				c27.3-21.8,49-55.6,67.1-94.8c27-58.9,45.7-130.2,62.3-192.4c8.3-31.1,16.1-59.9,24.2-83.6c8.1-23.8,16.4-42.5,25.7-53.5
				c6.6-7.8,15.5-15.4,26.4-21.1c10.8-5.7,23.6-9.4,37.8-9.4c14.9,0,31.5,4.1,49.4,14.3s37,26.6,57,51.1
				c32.3,39.8,82,72.5,133.1,95.3c51.2,22.8,103.8,35.7,142,35.7c6.8,0,13.2-0.4,19-1.3c25.4-3.7,45.5-11.4,59.2-23.7
				c13.7-12.3,21-29.2,21-50.9v0c0-19.2-5.7-42.2-17.6-69.3c-24.8-56.5-44.6-112.4-44.6-157.1v0c0-25.1,6.2-46.6,21.2-62.9
				c5.7-6.2,13.1-10.8,21.9-13.8s18.9-4.5,30-4.5c34.2,0,78.3,13.9,122.5,39.2l0.8-1.3c-44.4-25.3-88.6-39.4-123.2-39.4
				c-11.3,0-21.6,1.5-30.5,4.6c-9,3.1-16.6,7.8-22.5,14.2c-15.3,16.6-21.6,38.6-21.6,63.9v0c0,45.1,19.9,101.2,44.8,157.8
				c11.8,27,17.4,49.8,17.4,68.7c0,21.4-7.1,37.8-20.5,49.8c-13.4,12-33.1,19.7-58.4,23.3c-5.7,0.8-12,1.2-18.8,1.2
				c-37.9,0-90.4-12.8-141.4-35.5c-51-22.7-100.5-55.4-132.6-94.9c-20-24.7-39.3-41.2-57.4-51.5c-18.1-10.3-35-14.5-50.2-14.5
				c-14.5,0-27.5,3.8-38.5,9.6c-11,5.8-20.1,13.5-26.8,21.5c-6.4,7.5-12.2,18.4-17.8,31.9c-9.8,23.6-18.8,55.2-28.3,90.5
				c-14.3,52.9-29.8,114.2-50.6,169.3c-20.8,55.1-46.9,104.1-82.4,132.4c-26.6,21.2-55.6,29.3-84.7,29.3
				c-32.8,0-65.6-10.4-94.5-24.3C54.7,44.1,29.6,26.7,12,12.8L11,14z"/>
			<path class="st33" d="M11.1,106c56,36.7,119.3,54,175.3,54c37.2,0,71.2-7.6,97.9-22.3c15.4-8.5,29.2-22.1,41.8-39.3
				c19-25.9,35.6-60.2,52-98.5c16.4-38.4,32.5-80.8,50.5-123c18.3-43,44.1-71.3,72.4-88.9c28.3-17.6,59.2-24.4,88-24.4
				c17.5,0,34.3,2.5,49.1,6.8c42.6,12.1,87.7,39.3,135.1,66.1c47.3,26.8,96.9,53.3,148.4,63.9c21.7,4.5,41,6.5,58.3,6.5
				c41.2,0,70.8-11.4,93.1-28c22.3-16.6,37.3-38.4,49.6-59l-1.3-0.8c-12.2,20.6-27.1,42.1-49.1,58.5c-22.1,16.4-51.3,27.7-92.2,27.7
				c-17.2,0-36.4-2-58-6.4c-51.2-10.5-100.7-36.9-148-63.8c-47.3-26.8-92.5-54.1-135.4-66.3c-15-4.2-31.8-6.8-49.5-6.8
				c-29,0-60.2,6.9-88.8,24.7c-28.6,17.8-54.5,46.3-73,89.6c-24,56.3-44.7,113-67,159.8c-11.2,23.4-22.7,44.3-35.3,61.4
				c-12.6,17.2-26.2,30.5-41.3,38.9c-26.4,14.5-60.2,22.1-97.2,22.1c-55.7,0-118.7-17.2-174.5-53.7L11.1,106z"/>
			<path class="st33" d="M11.1,143.5c0.1,0,76.5,51.8,167.3,51.9c38.3,0,79.3-9.2,118-35.5c41.2-28,64.2-67.3,83.3-111.2
				c19.1-43.9,34.3-92.5,59.9-139.3c18.7-34.1,44.6-57.8,74-72.9c29.4-15.1,62.1-21.7,94.5-21.7c43.6,0,86.4,11.9,118.8,31
				c66,38.7,158.6,82,244.8,82.1c28.1,0,55.4-4.6,81-15.5c25.5-10.9,49.2-28.1,69.8-53.2l-1.2-1c-20.5,24.9-43.9,41.9-69.2,52.7
				c-25.3,10.8-52.5,15.4-80.4,15.4c-85.6,0-178.1-43.2-244-81.8c-32.7-19.2-75.7-31.2-119.6-31.2c-32.6,0-65.6,6.6-95.2,21.8
				c-29.6,15.2-55.8,39.1-74.6,73.5c-25.7,46.9-40.9,95.6-60,139.4c-19.1,43.8-41.9,82.8-82.8,110.5c-38.5,26.1-79,35.3-117.1,35.3
				c-45.1,0-86.8-12.9-117.1-25.8c-15.2-6.5-27.5-12.9-36.1-17.7c-4.3-2.4-7.6-4.4-9.9-5.8c-1.1-0.7-2-1.3-2.6-1.6
				c-0.3-0.2-0.5-0.3-0.6-0.4c-0.1-0.1-0.2-0.1-0.2-0.1L11.1,143.5z"/>
			<path class="st33" d="M11.1,168.7c66.6,44.1,125.4,64.9,177.3,64.9c39.2,0,74.5-11.9,106.1-34.5c31.6-22.6,59.5-56,84.3-98.9
				C403.1,58,433-0.6,474.3-48.6c20.7-24,44.2-45.4,71.2-60.7c27-15.3,57.6-24.7,92.5-24.7c29.9,0,62.9,6.9,99.6,22.7
				c104.9,45.4,178.7,66.8,237.2,66.8c29.9,0,55.9-5.6,79.8-16.6c23.9-11,45.8-27.3,67.8-48.5l-1.1-1.1
				c-21.9,21.2-43.7,37.3-67.4,48.2c-23.7,10.9-49.4,16.5-79.1,16.5c-58.1,0-131.8-21.4-236.6-66.7c-36.8-15.9-70.1-22.9-100.2-22.9
				c-35.2,0-66,9.4-93.3,24.9c-40.9,23.2-73.6,59.9-100.7,98.7c-27.1,38.8-48.5,79.7-66.7,111.3c-24.7,42.8-52.5,76-83.9,98.4
				c-31.4,22.5-66.3,34.3-105.2,34.3c-51.5,0-110-20.6-176.5-64.7L11.1,168.7z"/>
			<path class="st33" d="M8.2,364.3c0.1,0,58.7,42.1,135.2,42.1c16.7,0,34.2-2,52.2-6.9c25-6.8,43.3-16,57.3-26.8
				c21-16.2,32.2-36,41.9-56.4c9.7-20.4,17.9-41.4,32.9-60.2c24.5-30.8,53.4-44,82.3-52.8c28.9-8.8,57.8-13.2,82.1-26.4
				c18.1-9.9,30.3-23.9,39.8-39.9c14.2-24,22.5-52.7,35.6-79.2c13.1-26.5,30.9-51,64.4-66.9c21.2-10,44.7-15.5,71.4-15.5
				c43,0,94.2,14.2,156.8,46.5c37.6,19.4,71.9,26.8,102.6,26.8c50.1,0,90-19.9,117.5-39.7c27.4-19.8,42.4-39.7,42.4-39.7l-1.2-0.9
				c0,0-0.1,0.1-0.2,0.2c-1.8,2.3-17.3,22-44.5,41c-27.2,19.1-65.9,37.6-114,37.6c-30.4,0-64.5-7.4-101.9-26.7
				c-62.6-32.3-114.1-46.6-157.5-46.6c-26.9,0-50.7,5.5-72.1,15.6c-22.6,10.7-38.2,25.3-49.9,41.8c-17.6,24.7-26.7,53.5-38.1,79.8
				c-5.7,13.1-12,25.6-20.2,36.6c-8.2,11-18.3,20.6-31.6,27.9c-24,13.1-52.8,17.5-81.8,26.3c-29.1,8.8-58.3,22.2-83,53.3
				c-10.1,12.7-17.1,26.4-23.6,40.1c-9.7,20.5-18,41.2-33.2,59.2c-15.2,18-37.3,33.5-74.6,43.6c-17.8,4.8-35.2,6.8-51.8,6.8
				c-37.9,0-71.5-10.4-95.6-20.9c-12-5.2-21.7-10.5-28.4-14.4c-3.3-2-5.9-3.6-7.6-4.7c-0.9-0.6-1.5-1-2-1.3
				c-0.2-0.2-0.4-0.3-0.5-0.3c-0.1-0.1-0.2-0.1-0.2-0.1L8.2,364.3z"/>
			<path class="st33" d="M8.1,242.4c0.1,0.1,37.4,40.8,126.1,66.5c13.1,3.8,26.2,4.8,38.3,4.8c12.3,0,23.7-1,33.1-1
				c4.1,0,7.8,0.2,11.1,0.7c2.4,0.4,4.6,1,6.5,1.8c2.8,1.3,5,3.1,6.5,5.7c1.5,2.6,2.3,6.1,2.3,10.7c0,2-0.5,4-1.6,6
				c-1.9,3.6-5.4,7.1-10.4,10.5c-7.5,5-18.3,9.4-31.5,12.6c-13.2,3.2-28.9,5.1-46.3,5.1c-38.8,0-85.9-9.5-133.1-36l-0.7,1.3
				c47.4,26.6,94.9,36.2,133.9,36.2c26.7,0,49.4-4.5,65.6-11.2c8.1-3.3,14.5-7.2,18.9-11.4c2.2-2.1,3.9-4.2,5.1-6.5
				c1.2-2.2,1.8-4.5,1.8-6.8v0c0-4.2-0.7-7.7-2-10.4c-1-2.1-2.3-3.7-4-5.1c-2.5-2-5.7-3.2-9.4-4c-3.7-0.7-7.9-1-12.6-1
				c-9.5,0-20.8,1-33.1,1c-12,0-24.9-1-37.9-4.7c-44.2-12.8-75.6-29.3-95.9-42.7c-10.2-6.7-17.5-12.5-22.4-16.7
				c-2.4-2.1-4.2-3.8-5.4-4.9c-0.6-0.6-1-1-1.3-1.3c-0.1-0.1-0.3-0.3-0.3-0.3c-0.1-0.1-0.1-0.1-0.1-0.1L8.1,242.4z"/>
			<path class="st33" d="M8.4,637.3l0.6,1.4c16.7-6.8,29.3-18.2,40.1-31.7c16.3-20.2,28.8-45.1,46.1-66.5
				c17.3-21.4,39.3-39.3,74.6-45.7c31.5-5.7,63.5-18.1,90.7-36c27.2-17.9,49.6-41.1,61.8-68.6c17.4-39.1,42.8-61.9,74.5-79.7
				C428.5,292.8,466.5,280,509,261c17.2-7.7,29.9-19.3,40.2-33.2c15.4-20.9,25.3-46.9,36.7-72.7c11.4-25.8,24.3-51.4,45.6-71.5
				c21-19.8,49.1-27.5,79.5-27.5c53.6,0,114,23.8,154,46.2c42.8,23.9,79.7,33.3,111.5,33.3c36.7,0,66.5-12.5,90.4-29.3
				c23.9-16.8,42.1-37.9,55.6-55l-1.2-1c-13.5,17.1-31.6,38-55.3,54.7c-23.7,16.7-53.2,29-89.5,29c-31.4,0-68.1-9.3-110.7-33.1
				C825.6,78.6,765,54.6,711,54.6c-30.6,0-59.2,7.7-80.6,27.9c-28.8,27.1-42.3,64-57.2,97.7c-7.4,16.9-15.2,33-25.3,46.7
				c-10.1,13.8-22.6,25.2-39.6,32.7c-42.3,18.9-80.4,31.7-112.3,49.6c-31.9,17.9-57.7,41-75.2,80.5c-12,27.1-34.2,50.2-61.2,67.9
				c-27,17.7-58.9,30.1-90.1,35.8c-23.8,4.3-41.7,13.8-56.1,26.1c-21.7,18.4-35.6,42.9-50.2,65.2c-7.3,11.2-14.9,21.8-23.7,30.9
				C30.7,624.7,20.7,632.3,8.4,637.3"/>
		</g>
	</g>
</g>
<g>
	<defs>
		<rect id="SVGID_51_" x="-377.5" y="379.8" width="537.6" height="333.5"/>
	</defs>
	<clipPath id="SVGID_4_">
		<use xlink:href="#SVGID_51_"  style="overflow:visible;"/>
	</clipPath>
	<g style="opacity:0.3;clip-path:url(#SVGID_4_);">
		<path class="st27" d="M-383,544.9c0,0,37.5,14.8,73.1,14.8c9.2,0,18.2-1,26.5-3.5c8.3-2.5,15.8-6.4,21.8-12.4
			c12.1-12,19.1-23.8,23.1-35.6c6-17.6,5.4-35,5.5-52.4c0.1-17.4,1-34.7,9.9-52.2c3.9-7.6,11.5-15.1,21.7-20.7
			c10.2-5.6,22.8-9.3,36.7-9.3c6.1,0,12.4,0.7,18.9,2.3c3.5,0.8,6.6,1.2,9.5,1.2c7,0,12.4-2.3,17-5.7c6.9-5.1,11.9-12.7,17.9-19
			c3-3.1,6.3-5.9,10.1-8c3.8-2,8.2-3.3,13.6-3.3c2.1,0,4.4,0.2,6.8,0.6c5.1,0.9,9.1,2.4,12.3,4.6c4.8,3.2,7.8,7.8,9.5,13.4
			c1.8,5.6,2.4,12.1,2.4,19.3v0c0,13.1-1.9,28.1-1.9,42.9c0,10.5,1,20.9,4.3,30.4c3.2,9,8.6,19.6,17.4,28.3
			c8.8,8.8,20.9,15.7,37.3,17.3c1.8,0.2,3.6,0.3,5.4,0.3c11.8,0,23.3-3.8,32.2-10.8c8.8-7.1,15-17.5,15.9-30.7
			c0.1-1.5,0.2-2.9,0.2-4.4c0-16.7-6.9-33-17.4-47.4C36.3,390.8,22.3,378.4,8,369.6c-6.5-4-11.2-9.3-14.2-15.3
			c-3-6-4.4-12.7-4.4-19.5v0c0-15.4,7.1-31.2,18.3-40.4c9.5-7.9,14.5-16.8,17.1-24.2c2.6-7.4,2.8-13.2,2.8-15c0-0.3,0-0.5,0-0.5
			l-0.8,0l0,0c0,0.1,0,0.2,0,0.5v0c0,1.7-0.2,7.4-2.8,14.7c-2.6,7.3-7.5,16.1-16.9,23.8c-11.4,9.4-18.6,25.5-18.6,41.1
			c0,6.9,1.4,13.7,4.5,19.8c3.1,6.1,7.8,11.5,14.5,15.6c14.2,8.7,28.2,21,38.5,35.3c10.4,14.3,17.2,30.5,17.2,46.9
			c0,1.4-0.1,2.9-0.2,4.3c-1,13-7,23.2-15.7,30.2c-8.7,7-20,10.7-31.7,10.7c-1.8,0-3.6-0.1-5.3-0.3c-16.2-1.6-28.1-8.4-36.8-17.1
			c-8.7-8.7-14.1-19.1-17.2-28c-3.3-9.3-4.3-19.6-4.3-30.1v0c0-14.7,1.9-29.8,1.9-42.9c0-9.6-1-18.3-4.7-24.9
			c-1.8-3.3-4.3-6.2-7.6-8.4c-3.3-2.2-7.4-3.8-12.6-4.7c-2.5-0.4-4.8-0.6-7-0.6c-7.3,0-13,2.3-17.7,5.7c-7.1,5.1-12.2,12.7-18.1,19
			c-3,3.1-6.1,5.9-9.8,8c-3.7,2-7.9,3.3-13,3.3c-2.8,0-5.9-0.4-9.3-1.2c-6.5-1.6-12.9-2.3-19.1-2.3c-14,0-26.8,3.7-37.1,9.4
			c-10.3,5.6-18,13.2-22,21c-6,11.8-8.4,23.5-9.4,35.2c-1.4,17.5,0.3,34.8-2,52.1c-2.4,17.4-8.9,34.8-26.9,52.7
			c-5.9,5.9-13.3,9.8-21.5,12.2c-8.2,2.4-17.2,3.4-26.3,3.4c-17.7,0-35.9-3.7-49.7-7.4c-6.9-1.8-12.7-3.7-16.7-5.1
			c-2-0.7-3.6-1.3-4.7-1.7c-0.5-0.2-1-0.4-1.2-0.5c-0.3-0.1-0.4-0.2-0.4-0.2L-383,544.9z"/>
		<path class="st27" d="M1.1,334.7L1.1,334.7c0,6.6,2.3,13.1,6.5,18.2c4.2,5.1,10.3,8.6,17.8,9.4c1.3,0.1,2.6,0.2,3.8,0.2
			c6.2,0,11.4-1.7,16-4.4C52,354,57.3,347.5,62,340.9c4.7-6.6,8.7-13.5,13.1-18.4c4.8-5.5,12.5-10.7,22-14.6
			c9.5-3.9,20.9-6.4,33.2-6.4c19.9,0,42.2,6.5,62.6,24.4l0.5-0.6c-20.6-18-43-24.6-63.1-24.6c-12.4,0-23.9,2.5-33.5,6.4
			c-9.6,3.9-17.4,9.2-22.3,14.8c-5.9,6.7-11.2,16.7-18,24.9c-3.4,4.1-7.2,7.8-11.7,10.5c-4.4,2.7-9.5,4.3-15.5,4.3
			c-1.2,0-2.4-0.1-3.7-0.2c-7.3-0.8-13.2-4.3-17.3-9.2c-4.1-4.9-6.3-11.2-6.3-17.7c0-7.3,2.9-14.8,9.4-20.6
			c7.8-6.9,19.2-14,28.7-23.2c4.8-4.6,9-9.8,12.2-15.7c3.1-5.9,5.1-12.7,5.3-20.5l-0.8,0c-0.2,7.7-2.1,14.3-5.2,20.1
			c-4.6,8.8-11.9,15.8-19.4,22c-7.5,6.2-15.4,11.4-21.3,16.7C4.1,319.4,1.1,327.1,1.1,334.7"/>
		<path class="st27" d="M14.5,331.2L14.5,331.2c0,1.9,0.2,4,0.6,6.2c0.9,4.6,2.8,7.8,5.2,9.8c2.5,2,5.6,2.9,8.7,2.9
			c6,0,12.3-2.9,16.3-6.7c7.8-7.5,11.3-13.8,15.1-20.3c3.8-6.5,8.1-13.1,17.6-21.5c15.5-13.5,39.7-23.3,65.5-23.3
			c16.4,0,33.4,3.9,49.3,13.3l0.4-0.7c-16.1-9.5-33.2-13.4-49.7-13.4c-26,0-50.4,9.9-66,23.5c-9.6,8.4-13.9,15.2-17.8,21.7
			c-3.9,6.5-7.2,12.7-15,20.1c-3.8,3.6-10,6.5-15.7,6.5c-3,0-5.9-0.8-8.2-2.7c-2.3-1.9-4.1-4.9-5-9.3c-0.4-2.2-0.6-4.2-0.6-6
			c0-4.5,1.1-8.2,3.1-11.2c3-4.5,7.9-7.7,13.7-10c5.9-2.4,12.7-3.9,19.5-5.4c10.8-2.3,17.8-7.1,22.1-13.4c4.3-6.3,5.8-14,5.8-22.1
			c0-4.7-0.5-9.5-1.4-14.3l-0.8,0.1c0.8,4.7,1.3,9.5,1.3,14.2v0c0,8-1.5,15.6-5.7,21.7c-4.2,6.1-11,10.8-21.6,13.1
			c-9.1,1.9-18.3,4.1-25.2,8.1c-3.5,2-6.4,4.5-8.5,7.7C15.7,322.7,14.5,326.5,14.5,331.2"/>
		<path class="st27" d="M-384.4,532c27.7,9.2,49.2,13,66.3,13c13.6,0,24.3-2.4,32.9-6.3c8.6-3.9,15.1-9.4,20.2-15.6
			c5.3-6.4,10.7-17,14.8-30.8c4.1-13.8,6.9-30.7,6.9-49.5c0-2,0-4-0.1-6.1c0-1.3-0.1-2.5-0.1-3.8c0-20.9,5.7-36.3,14.2-47.2
			c8.5-11,19.9-17.6,31.3-21c5.5-1.6,10.9-2.2,16.3-2.2c11.2,0,22.2,2.4,33.1,2.4c6.2,0,12.4-0.8,18.5-3.3c5.5-2.2,9.5-5.3,12.6-8.7
			c4.7-5.2,7.4-11.2,10.4-16.9c3-5.7,6.2-10.9,11.8-14.5c6.1-4,12.1-5.6,17.7-5.6c7,0,13.5,2.6,19.2,6.7c5.8,4.1,10.8,9.7,14.8,15.6
			c9.3,13.7,12.1,33.6,12.1,52v0c0,8-0.5,15.7-1.3,22.5c-0.3,2.9-0.5,6-0.5,9.1c0,10.7,2,22.5,6.4,32.8
			c4.4,10.2,11.3,18.9,21.2,23.2c7.1,3.1,14.3,4.7,20.9,4.7c8.3,0,15.8-2.5,21.2-7.8c5.4-5.3,8.6-13.3,8.6-24.1v0
			c0-6.5-1.7-12.8-4.5-18.8c-4.3-9-11.2-17.3-18.9-24.9c-7.7-7.6-16.4-14.5-24.1-20.6c-8.5-6.8-14.4-15.2-18.1-24.1
			c-3.7-8.9-5.3-18.3-5.3-26.9v0c0-8.6,1.6-16.5,4.1-22.5c4-9.4,10.6-18.5,16.3-27.7c2.8-4.6,5.4-9.3,7.3-14
			c1.9-4.7,3.1-9.5,3.1-14.5c0-0.6,0-1.2,0-1.7l-0.8,0c0,0.6,0,1.1,0,1.7v0c0,4.8-1.1,9.5-3,14.2c-2.8,7-7.2,13.9-11.6,20.8
			c-4.4,6.9-9,13.8-12,20.9c-2.6,6.1-4.1,14.1-4.1,22.8c0,8.7,1.6,18.2,5.3,27.2c3.7,9,9.7,17.6,18.3,24.5
			c10.3,8.2,22.1,17.7,31.4,28.4c4.6,5.3,8.6,11,11.4,16.9c2.8,5.9,4.5,12,4.5,18.4c0,10.7-3.2,18.4-8.4,23.5
			c-5.2,5.1-12.4,7.6-20.6,7.6c-6.5,0-13.5-1.6-20.6-4.6c-9.7-4.2-16.4-12.7-20.8-22.8c-4.4-10.1-6.3-21.8-6.3-32.4
			c0-3.1,0.2-6.2,0.5-9.1c0.8-6.8,1.3-14.5,1.3-22.6c0-18.5-2.8-38.5-12.3-52.5c-4.1-6-9.2-11.7-15-15.8c-5.9-4.2-12.5-6.8-19.7-6.8
			c-5.8,0-11.9,1.7-18.1,5.8c-3.9,2.5-6.6,5.7-8.9,9.3c-3.4,5.3-5.8,11.4-9.4,16.9c-3.6,5.5-8.3,10.5-16.3,13.8
			c-6,2.5-12.1,3.2-18.2,3.2c-10.7,0-21.7-2.4-33.1-2.4c-5.4,0-10.9,0.6-16.5,2.2c-11.6,3.4-23.1,10.2-31.7,21.3
			c-8.6,11.1-14.3,26.7-14.3,47.7v0c0,1.3,0,2.5,0.1,3.8c0.1,2,0.1,4.1,0.1,6c0,18.7-2.8,35.5-6.8,49.2
			c-4.1,13.7-9.5,24.3-14.6,30.5c-5.1,6.1-11.5,11.5-20,15.4c-8.5,3.9-19.1,6.3-32.5,6.3c-16.9,0-38.4-3.7-66-12.9L-384.4,532z"/>
		<path class="st27" d="M98.1,254.3c1.1,1.8,2.7,3.2,4.7,4.2c3,1.6,7,2.4,11.6,2.9c4.6,0.5,9.9,0.6,15.7,0.6c3.3,0,6.7,0,10.1,0
			c17.3,0,36.8,0.7,52.8,8.6l0.4-0.7c-16.2-8-35.8-8.7-53.1-8.7c-3.5,0-6.9,0-10.1,0c-7.6,0-14.5-0.2-19.9-1.2
			c-2.7-0.5-5.1-1.2-7-2.2c-1.9-1-3.4-2.3-4.4-3.9L98.1,254.3z"/>
	</g>
</g>
<rect x="119.5" y="67.9" class="st48" width="136.5" height="154.5"/>
<rect class="st48" width="48.2" height="222.4"/>
<g>
	<path class="st27" d="M241.4,174.8c0,3.3-2.7,6-6,6H97.2c-3.3,0-6-2.7-6-6v-50.1c0-3.3,2.7-6,6-6h138.1c3.3,0,6,2.7,6,6V174.8z"/>
</g>
<g>
	<path class="st33" d="M138.1,233.4c0,3.3-2.7,6-6,6H20.6c-3.3,0-6-2.7-6-6v-36.2c0-3.3,2.7-6,6-6h111.5c3.3,0,6,2.7,6,6V233.4z"/>
</g>
<g>
	<path class="st45" d="M241.4,51.5c0,3.3-2.7,6-6,6H20.6c-3.3,0-6-2.7-6-6v-31c0-3.3,2.7-6,6-6h214.7c3.3,0,6,2.7,6,6V51.5z"/>
</g>
<g>
	<path class="st17" d="M241.4,102.7c0,3.3-2.7,6-6,6H20.6c-3.3,0-6-2.7-6-6v-31c0-3.3,2.7-6,6-6h214.7c3.3,0,6,2.7,6,6V102.7z"/>
</g>
<g>
	<path class="st18" d="M224.9,209.5c0,3.3-2.7,6-6,6h-64.4c-3.3,0-6-2.7-6-6v-59.6c0-3.3,2.7-6,6-6h64.4c3.3,0,6,2.7,6,6V209.5z"/>
</g>
<path class="st14" d="M188.4,196c-0.9,0.9-2.4,0.9-3.3,0l-5.5-5.5c-0.7-0.7-0.7-1.8,0-2.5l0.8-0.8c0.7-0.7,1.8-0.7,2.5,0l1.7,1.9
	v-9.3h-9.3l1.9,1.7c0.7,0.7,0.7,1.8,0,2.5l-0.8,0.8c-0.7,0.7-1.8,0.7-2.5,0l-5.5-5.5c-0.9-0.9-0.9-2.4,0-3.3l5.5-5.5
	c0.7-0.7,1.8-0.7,2.5,0l0.8,0.8c0.7,0.7,0.7,1.8,0,2.5l-1.9,1.7h9.3v-9.3l-1.7,1.9c-0.7,0.7-1.8,0.7-2.5,0l-0.8-0.8
	c-0.7-0.7-0.7-1.8,0-2.5l5.5-5.5c0.9-0.9,2.4-0.9,3.3,0l5.5,5.5c0.7,0.7,0.7,1.8,0,2.5l-0.8,0.8c-0.7,0.7-1.8,0.7-2.5,0l-1.7-1.9
	v9.3h9.3l-1.9-1.7c-0.7-0.7-0.7-1.8,0-2.5l0.8-0.8c0.7-0.7,1.8-0.7,2.5,0l5.5,5.5c0.9,0.9,0.9,2.4,0,3.3l-5.5,5.5
	c-0.7,0.7-1.8,0.7-2.5,0l-0.8-0.8c-0.7-0.7-0.7-1.9,0-2.5l1.9-1.7h-9.3v9.3l1.7-1.9c0.7-0.7,1.8-0.7,2.5,0l0.8,0.8
	c0.7,0.7,0.7,1.8,0,2.5L188.4,196z"/>
<path class="st14" d="M138.1,148.8c0,9.2-7.4,16.6-16.6,16.6s-16.6-7.4-16.6-16.6s7.4-16.6,16.6-16.6S138.1,139.7,138.1,148.8z
	 M131.3,157.1c-1.3-2.4-3.7-4-6.6-4c-0.2,0-0.3,0-0.5,0.1c-0.9,0.3-1.8,0.5-2.7,0.5c-1,0-1.9-0.2-2.7-0.5c-0.2,0-0.3-0.1-0.5-0.1
	c-2.9,0-5.3,1.6-6.6,4c2.4,2.8,5.9,4.6,9.8,4.6C125.4,161.7,128.9,159.9,131.3,157.1z M115.5,144.5c0,3.3,2.6,5.9,5.9,5.9
	s5.9-2.6,5.9-5.9c0-3.3-2.6-5.9-5.9-5.9S115.5,141.3,115.5,144.5z"/>
<g>
	<path class="st14" d="M35.6,49.4c-7.4,0-13.4-6-13.4-13.4s6-13.4,13.4-13.4S49,28.6,49,36S43,49.4,35.6,49.4z M44,33.2
		c0.3-0.3,0.3-0.9,0-1.2l-1.2-1.2c-0.3-0.3-0.9-0.3-1.2,0l-8.1,8.1L29.7,35c-0.3-0.3-0.9-0.3-1.2,0l-1.2,1.2c-0.3,0.3-0.3,0.9,0,1.2
		l5.6,5.6c0.3,0.3,0.9,0.3,1.2,0L44,33.2z"/>
</g>
<g>
	<path class="st14" d="M35.6,100.5c-7.4,0-13.4-6-13.4-13.4c0-7.4,6-13.4,13.4-13.4S49,79.8,49,87.2C49,94.5,43,100.5,35.6,100.5z"
		/>
</g>
<g>
	<circle class="st18" cx="49" cy="149.9" r="26.1"/>
	<path class="st14" d="M42.1,155.9V155h4.5v0.8c0.1,2.5,0.5,3.9,2.4,3.9c2,0,2.4-1.5,2.4-4.1c0-2.7-0.7-4.3-3.1-4.5h-0.7v-3.6h0.7
		c2.4,0,3.2-1.2,3.2-3.9c0-2.2-0.5-3.5-2.4-3.5c-1.9,0-2.3,1.5-2.4,3.7v0.9h-4.5v-1.2c0-4.5,2.4-7.1,6.8-7.1c4.5,0,6.9,2.5,6.9,7
		c0,3.2-1.5,5.2-3.5,5.8c2.1,0.7,3.5,2.6,3.5,6.3c0,4.8-1.9,8-6.9,8C44,163.5,42.1,160.5,42.1,155.9z"/>
</g>
<rect x="148.5" y="229.1" class="st27" width="76.4" height="9.5"/>
<rect x="33.7" y="206.6" class="st27" width="77.4" height="4.7"/>
<rect x="33.7" y="219.8" class="st27" width="85.3" height="4.7"/>
<g>
	<path class="st17" d="M41.8,90.9c0.5,0.5,0.5,1.2,0,1.7L41,93.4c-0.5,0.5-1.2,0.5-1.7,0l-3.7-3.7l-3.7,3.7c-0.5,0.5-1.2,0.5-1.7,0
		l-0.8-0.8c-0.5-0.5-0.5-1.2,0-1.7l3.7-3.7l-3.7-3.7c-0.5-0.5-0.5-1.2,0-1.7l0.8-0.8c0.5-0.5,1.2-0.5,1.7,0l3.7,3.7l3.7-3.7
		c0.5-0.5,1.2-0.5,1.7,0l0.8,0.8c0.5,0.5,0.5,1.2,0,1.7l-3.7,3.7L41.8,90.9z"/>
</g>
</svg>
